<svg id="visual" viewBox="0 0 960 200" width="960" height="100"
     xmlns="http://www.w3.org/2000/svg" version="1.1">
    <rect x="0" y="0" width="960" height="200" fill="#000000"></rect>
    <path d="M0 75L20 72.7C40 70.3 80 65.7 120 66.2C160 66.7 200 72.3 240 73.3C280 74.3 320 70.7 360 66.8C400 63 440 59 480 59C520 59 560 63 600 63.5C640 64 680 61 720 62.7C760 64.3 800 70.7 840 69.5C880 68.3 920 59.7 940 55.3L960 51L960 0L940 0C920 0 880 0 840 0C800 0 760 0 720 0C680 0 640 0 600 0C560 0 520 0 480 0C440 0 400 0 360 0C320 0 280 0 240 0C200 0 160 0 120 0C80 0 40 0 20 0L0 0Z"
          fill="#ff0000"></path>
    <path d="M0 48L20 51C40 54 80 60 120 61.2C160 62.3 200 58.7 240 54.8C280 51 320 47 360 46.8C400 46.7 440 50.3 480 51C520 51.7 560 49.3 600 48.7C640 48 680 49 720 48.7C760 48.3 800 46.7 840 47.2C880 47.7 920 50.3 940 51.7L960 53L960 0L940 0C920 0 880 0 840 0C800 0 760 0 720 0C680 0 640 0 600 0C560 0 520 0 480 0C440 0 400 0 360 0C320 0 280 0 240 0C200 0 160 0 120 0C80 0 40 0 20 0L0 0Z"
          fill="#c9005e"></path>
    <path d="M0 36L20 37.2C40 38.3 80 40.7 120 41C160 41.3 200 39.7 240 40.8C280 42 320 46 360 45.2C400 44.3 440 38.7 480 38.8C520 39 560 45 600 45.7C640 46.3 680 41.7 720 41.5C760 41.3 800 45.7 840 45.8C880 46 920 42 940 40L960 38L960 0L940 0C920 0 880 0 840 0C800 0 760 0 720 0C680 0 640 0 600 0C560 0 520 0 480 0C440 0 400 0 360 0C320 0 280 0 240 0C200 0 160 0 120 0C80 0 40 0 20 0L0 0Z"
          fill="#672171"></path>
    <path d="M0 32L20 31.8C40 31.7 80 31.3 120 31.3C160 31.3 200 31.7 240 32.3C280 33 320 34 360 31.7C400 29.3 440 23.7 480 22.3C520 21 560 24 600 26C640 28 680 29 720 28.8C760 28.7 800 27.3 840 27.3C880 27.3 920 28.7 940 29.3L960 30L960 0L940 0C920 0 880 0 840 0C800 0 760 0 720 0C680 0 640 0 600 0C560 0 520 0 480 0C440 0 400 0 360 0C320 0 280 0 240 0C200 0 160 0 120 0C80 0 40 0 20 0L0 0Z"
          fill="#0e2349"></path>
    <path d="M0 14L20 13.5C40 13 80 12 120 11.7C160 11.3 200 11.7 240 13.2C280 14.7 320 17.3 360 18.7C400 20 440 20 480 19.2C520 18.3 560 16.7 600 17C640 17.3 680 19.7 720 21C760 22.3 800 22.7 840 21.7C880 20.7 920 18.3 940 17.2L960 16L960 0L940 0C920 0 880 0 840 0C800 0 760 0 720 0C680 0 640 0 600 0C560 0 520 0 480 0C440 0 400 0 360 0C320 0 280 0 240 0C200 0 160 0 120 0C80 0 40 0 20 0L0 0Z"
          fill="#010508"></path>
</svg>