<svg id="visual" viewBox="0 0 960 200" width="960" height="200"
     xmlns="http://www.w3.org/2000/svg" version="1.1">
    <rect x="0" y="0" width="960" height="200" fill="#000000"></rect>
    <path d="M0 123L20 125.3C40 127.7 80 132.3 120 131.8C160 131.3 200 125.7 240 124.7C280 123.7 320 127.3 360 131.2C400 135 440 139 480 139C520 139 560 135 600 134.5C640 134 680 137 720 135.3C760 133.7 800 127.3 840 128.5C880 129.7 920 138.3 940 142.7L960 147L960 201L940 201C920 201 880 201 840 201C800 201 760 201 720 201C680 201 640 201 600 201C560 201 520 201 480 201C440 201 400 201 360 201C320 201 280 201 240 201C200 201 160 201 120 201C80 201 40 201 20 201L0 201Z"
          fill="#ff0000"></path>
    <path d="M0 150L20 147C40 144 80 138 120 136.8C160 135.7 200 139.3 240 143.2C280 147 320 151 360 151.2C400 151.3 440 147.7 480 147C520 146.3 560 148.7 600 149.3C640 150 680 149 720 149.3C760 149.7 800 151.3 840 150.8C880 150.3 920 147.7 940 146.3L960 145L960 201L940 201C920 201 880 201 840 201C800 201 760 201 720 201C680 201 640 201 600 201C560 201 520 201 480 201C440 201 400 201 360 201C320 201 280 201 240 201C200 201 160 201 120 201C80 201 40 201 20 201L0 201Z"
          fill="#c9005e"></path>
    <path d="M0 162L20 160.8C40 159.7 80 157.3 120 157C160 156.7 200 158.3 240 157.2C280 156 320 152 360 152.8C400 153.7 440 159.3 480 159.2C520 159 560 153 600 152.3C640 151.7 680 156.3 720 156.5C760 156.7 800 152.3 840 152.2C880 152 920 156 940 158L960 160L960 201L940 201C920 201 880 201 840 201C800 201 760 201 720 201C680 201 640 201 600 201C560 201 520 201 480 201C440 201 400 201 360 201C320 201 280 201 240 201C200 201 160 201 120 201C80 201 40 201 20 201L0 201Z"
          fill="#672171"></path>
    <path d="M0 166L20 166.2C40 166.3 80 166.7 120 166.7C160 166.7 200 166.3 240 165.7C280 165 320 164 360 166.3C400 168.7 440 174.3 480 175.7C520 177 560 174 600 172C640 170 680 169 720 169.2C760 169.3 800 170.7 840 170.7C880 170.7 920 169.3 940 168.7L960 168L960 201L940 201C920 201 880 201 840 201C800 201 760 201 720 201C680 201 640 201 600 201C560 201 520 201 480 201C440 201 400 201 360 201C320 201 280 201 240 201C200 201 160 201 120 201C80 201 40 201 20 201L0 201Z"
          fill="#0e2349"></path>
    <path d="M0 184L20 184.5C40 185 80 186 120 186.3C160 186.7 200 186.3 240 184.8C280 183.3 320 180.7 360 179.3C400 178 440 178 480 178.8C520 179.7 560 181.3 600 181C640 180.7 680 178.3 720 177C760 175.7 800 175.3 840 176.3C880 177.3 920 179.7 940 180.8L960 182L960 201L940 201C920 201 880 201 840 201C800 201 760 201 720 201C680 201 640 201 600 201C560 201 520 201 480 201C440 201 400 201 360 201C320 201 280 201 240 201C200 201 160 201 120 201C80 201 40 201 20 201L0 201Z"
          fill="#010508"></path>
</svg>